<mxfile host="app.diagrams.net" modified="2021-09-18T09:03:17.160Z" agent="5.0 (Windows NT 10.0; Win64; x64) AppleWebKit/537.36 (KHTML, like Gecko) Chrome/93.0.4577.82 Safari/537.36" etag="WSG1v3W4wJwpJwD3KInO" version="15.2.9" type="github">
  <diagram id="R2lEEEUBdFMjLlhIrx00" name="Page-1">
    <mxGraphModel dx="981" dy="575" grid="1" gridSize="10" guides="1" tooltips="1" connect="1" arrows="1" fold="1" page="1" pageScale="1" pageWidth="850" pageHeight="1100" math="0" shadow="0" extFonts="Permanent Marker^https://fonts.googleapis.com/css?family=Permanent+Marker">
      <root>
        <mxCell id="0" />
        <mxCell id="1" parent="0" />
        <mxCell id="C3N5uGgPw5BcAoMVFrJw-1" value="&lt;font style=&quot;font-size: 14px&quot;&gt;ARTICLE&lt;/font&gt;" style="whiteSpace=wrap;html=1;align=center;" vertex="1" parent="1">
          <mxGeometry x="325" y="230" width="100" height="40" as="geometry" />
        </mxCell>
        <mxCell id="C3N5uGgPw5BcAoMVFrJw-2" value="&lt;span style=&quot;font-size: 14px&quot;&gt;Mat-#&lt;/span&gt;" style="ellipse;whiteSpace=wrap;html=1;align=center;fontStyle=4;" vertex="1" parent="1">
          <mxGeometry x="230" y="160" width="100" height="40" as="geometry" />
        </mxCell>
        <mxCell id="C3N5uGgPw5BcAoMVFrJw-3" value="" style="endArrow=none;html=1;rounded=0;exitX=1;exitY=1;exitDx=0;exitDy=0;entryX=0.5;entryY=0;entryDx=0;entryDy=0;" edge="1" parent="1" source="C3N5uGgPw5BcAoMVFrJw-2" target="C3N5uGgPw5BcAoMVFrJw-1">
          <mxGeometry relative="1" as="geometry">
            <mxPoint x="340" y="430" as="sourcePoint" />
            <mxPoint x="500" y="430" as="targetPoint" />
          </mxGeometry>
        </mxCell>
        <mxCell id="C3N5uGgPw5BcAoMVFrJw-4" value="&lt;font style=&quot;font-size: 14px&quot;&gt;CONSUMABLE&lt;/font&gt;" style="whiteSpace=wrap;html=1;align=center;" vertex="1" parent="1">
          <mxGeometry x="200" y="420" width="110" height="40" as="geometry" />
        </mxCell>
        <mxCell id="C3N5uGgPw5BcAoMVFrJw-5" value="&lt;font style=&quot;font-size: 14px&quot;&gt;SYSTEM&lt;/font&gt;" style="whiteSpace=wrap;html=1;align=center;" vertex="1" parent="1">
          <mxGeometry x="480" y="420" width="110" height="40" as="geometry" />
        </mxCell>
        <mxCell id="C3N5uGgPw5BcAoMVFrJw-7" value="&lt;span style=&quot;font-size: 18px&quot;&gt;d&lt;/span&gt;" style="ellipse;whiteSpace=wrap;html=1;align=center;" vertex="1" parent="1">
          <mxGeometry x="355" y="310" width="40" height="40" as="geometry" />
        </mxCell>
        <mxCell id="C3N5uGgPw5BcAoMVFrJw-8" value="" style="endArrow=none;html=1;rounded=0;entryX=1;entryY=0.5;entryDx=0;entryDy=0;entryPerimeter=0;exitX=0.5;exitY=0;exitDx=0;exitDy=0;" edge="1" parent="1" target="C3N5uGgPw5BcAoMVFrJw-9" source="C3N5uGgPw5BcAoMVFrJw-4">
          <mxGeometry relative="1" as="geometry">
            <mxPoint x="280" y="400" as="sourcePoint" />
            <mxPoint x="360" y="460" as="targetPoint" />
          </mxGeometry>
        </mxCell>
        <mxCell id="C3N5uGgPw5BcAoMVFrJw-9" value="" style="shape=requiredInterface;html=1;verticalLabelPosition=bottom;rotation=135;" vertex="1" parent="1">
          <mxGeometry x="295.66999999999996" y="350" width="34.33" height="40" as="geometry" />
        </mxCell>
        <mxCell id="C3N5uGgPw5BcAoMVFrJw-10" value="" style="shape=requiredInterface;html=1;verticalLabelPosition=bottom;rotation=45;" vertex="1" parent="1">
          <mxGeometry x="437.5" y="360" width="38.66" height="40" as="geometry" />
        </mxCell>
        <mxCell id="C3N5uGgPw5BcAoMVFrJw-11" value="" style="endArrow=none;html=1;rounded=0;exitX=0;exitY=0.5;exitDx=0;exitDy=0;entryX=1;entryY=0.5;entryDx=0;entryDy=0;entryPerimeter=0;" edge="1" parent="1" source="C3N5uGgPw5BcAoMVFrJw-7" target="C3N5uGgPw5BcAoMVFrJw-9">
          <mxGeometry relative="1" as="geometry">
            <mxPoint x="370" y="509.9999999999998" as="sourcePoint" />
            <mxPoint x="370" y="474.33000000000015" as="targetPoint" />
          </mxGeometry>
        </mxCell>
        <mxCell id="C3N5uGgPw5BcAoMVFrJw-12" value="" style="endArrow=none;html=1;rounded=0;exitX=1;exitY=0.5;exitDx=0;exitDy=0;exitPerimeter=0;entryX=0.25;entryY=0;entryDx=0;entryDy=0;" edge="1" parent="1" source="C3N5uGgPw5BcAoMVFrJw-10" target="C3N5uGgPw5BcAoMVFrJw-5">
          <mxGeometry relative="1" as="geometry">
            <mxPoint x="380" y="519.9999999999998" as="sourcePoint" />
            <mxPoint x="480" y="410" as="targetPoint" />
          </mxGeometry>
        </mxCell>
        <mxCell id="C3N5uGgPw5BcAoMVFrJw-13" value="" style="endArrow=none;html=1;rounded=0;exitX=1;exitY=0.5;exitDx=0;exitDy=0;entryX=1;entryY=0.5;entryDx=0;entryDy=0;exitPerimeter=0;" edge="1" parent="1" source="C3N5uGgPw5BcAoMVFrJw-10" target="C3N5uGgPw5BcAoMVFrJw-7">
          <mxGeometry relative="1" as="geometry">
            <mxPoint x="541.0703980740755" y="459.9949999999999" as="sourcePoint" />
            <mxPoint x="620" y="509.9999999999998" as="targetPoint" />
          </mxGeometry>
        </mxCell>
        <mxCell id="C3N5uGgPw5BcAoMVFrJw-14" value="" style="endArrow=none;html=1;rounded=0;exitX=0.5;exitY=1;exitDx=0;exitDy=0;entryX=0.5;entryY=0;entryDx=0;entryDy=0;shape=link;" edge="1" parent="1" target="C3N5uGgPw5BcAoMVFrJw-7" source="C3N5uGgPw5BcAoMVFrJw-1">
          <mxGeometry relative="1" as="geometry">
            <mxPoint x="360" y="320" as="sourcePoint" />
            <mxPoint x="385" y="480" as="targetPoint" />
          </mxGeometry>
        </mxCell>
        <mxCell id="C3N5uGgPw5BcAoMVFrJw-16" style="edgeStyle=orthogonalEdgeStyle;rounded=0;orthogonalLoop=1;jettySize=auto;html=1;exitX=0.5;exitY=1;exitDx=0;exitDy=0;" edge="1" parent="1" source="C3N5uGgPw5BcAoMVFrJw-4" target="C3N5uGgPw5BcAoMVFrJw-4">
          <mxGeometry relative="1" as="geometry" />
        </mxCell>
        <mxCell id="C3N5uGgPw5BcAoMVFrJw-17" value="&lt;span style=&quot;font-size: 14px&quot;&gt;Ser-#&lt;/span&gt;" style="ellipse;whiteSpace=wrap;html=1;align=center;fontStyle=4;" vertex="1" parent="1">
          <mxGeometry x="640" y="420" width="90" height="40" as="geometry" />
        </mxCell>
        <mxCell id="C3N5uGgPw5BcAoMVFrJw-20" value="" style="endArrow=none;html=1;rounded=0;exitX=1;exitY=0.5;exitDx=0;exitDy=0;entryX=0;entryY=0.5;entryDx=0;entryDy=0;" edge="1" parent="1" source="C3N5uGgPw5BcAoMVFrJw-5" target="C3N5uGgPw5BcAoMVFrJw-17">
          <mxGeometry relative="1" as="geometry">
            <mxPoint x="325.35533905932743" y="224.14213562373106" as="sourcePoint" />
            <mxPoint x="385" y="260" as="targetPoint" />
          </mxGeometry>
        </mxCell>
        <mxCell id="C3N5uGgPw5BcAoMVFrJw-23" value="" style="endArrow=none;html=1;rounded=0;entryX=0.5;entryY=1;entryDx=0;entryDy=0;exitX=0.5;exitY=0;exitDx=0;exitDy=0;" edge="1" parent="1" source="C3N5uGgPw5BcAoMVFrJw-31" target="C3N5uGgPw5BcAoMVFrJw-28">
          <mxGeometry relative="1" as="geometry">
            <mxPoint x="495" y="490" as="sourcePoint" />
            <mxPoint x="890" y="550" as="targetPoint" />
          </mxGeometry>
        </mxCell>
        <mxCell id="C3N5uGgPw5BcAoMVFrJw-24" value="M" style="resizable=0;html=1;align=left;verticalAlign=bottom;" connectable="0" vertex="1" parent="C3N5uGgPw5BcAoMVFrJw-23">
          <mxGeometry x="-1" relative="1" as="geometry" />
        </mxCell>
        <mxCell id="C3N5uGgPw5BcAoMVFrJw-26" value="" style="endArrow=none;html=1;rounded=0;entryX=0.5;entryY=1;entryDx=0;entryDy=0;exitX=0.5;exitY=0;exitDx=0;exitDy=0;" edge="1" parent="1" source="C3N5uGgPw5BcAoMVFrJw-5" target="C3N5uGgPw5BcAoMVFrJw-31">
          <mxGeometry relative="1" as="geometry">
            <mxPoint x="550" y="480" as="sourcePoint" />
            <mxPoint x="495" y="550" as="targetPoint" />
          </mxGeometry>
        </mxCell>
        <mxCell id="C3N5uGgPw5BcAoMVFrJw-27" value="N" style="resizable=0;html=1;align=right;verticalAlign=bottom;" connectable="0" vertex="1" parent="C3N5uGgPw5BcAoMVFrJw-26">
          <mxGeometry x="1" relative="1" as="geometry">
            <mxPoint x="15" y="20" as="offset" />
          </mxGeometry>
        </mxCell>
        <mxCell id="C3N5uGgPw5BcAoMVFrJw-28" value="&lt;font style=&quot;font-size: 14px&quot;&gt;CUSTOMER&lt;/font&gt;" style="whiteSpace=wrap;html=1;align=center;" vertex="1" parent="1">
          <mxGeometry x="485" y="230" width="100" height="40" as="geometry" />
        </mxCell>
        <mxCell id="C3N5uGgPw5BcAoMVFrJw-29" value="&lt;span style=&quot;font-size: 14px&quot;&gt;Cust-#&lt;/span&gt;" style="ellipse;whiteSpace=wrap;html=1;align=center;fontStyle=4;" vertex="1" parent="1">
          <mxGeometry x="485" y="160" width="100" height="40" as="geometry" />
        </mxCell>
        <mxCell id="C3N5uGgPw5BcAoMVFrJw-30" value="" style="endArrow=none;html=1;rounded=0;exitX=0.5;exitY=1;exitDx=0;exitDy=0;entryX=0.5;entryY=0;entryDx=0;entryDy=0;" edge="1" parent="1" source="C3N5uGgPw5BcAoMVFrJw-29" target="C3N5uGgPw5BcAoMVFrJw-28">
          <mxGeometry relative="1" as="geometry">
            <mxPoint x="325.35533905932743" y="224.14213562373106" as="sourcePoint" />
            <mxPoint x="385" y="260" as="targetPoint" />
          </mxGeometry>
        </mxCell>
        <mxCell id="C3N5uGgPw5BcAoMVFrJw-31" value="&lt;font style=&quot;font-size: 14px&quot;&gt;BUY_MTN_CONTRACT&lt;/font&gt;" style="shape=rhombus;perimeter=rhombusPerimeter;whiteSpace=wrap;html=1;align=center;" vertex="1" parent="1">
          <mxGeometry x="437.5" y="300" width="195" height="60" as="geometry" />
        </mxCell>
        <mxCell id="C3N5uGgPw5BcAoMVFrJw-33" value="&lt;span style=&quot;font-size: 14px&quot;&gt;Mtn-#&lt;/span&gt;" style="ellipse;whiteSpace=wrap;html=1;align=center;fontStyle=4;" vertex="1" parent="1">
          <mxGeometry x="660" y="310" width="100" height="40" as="geometry" />
        </mxCell>
        <mxCell id="C3N5uGgPw5BcAoMVFrJw-34" value="" style="endArrow=none;html=1;rounded=0;entryX=0;entryY=0.5;entryDx=0;entryDy=0;exitX=1;exitY=0.5;exitDx=0;exitDy=0;" edge="1" parent="1" target="C3N5uGgPw5BcAoMVFrJw-33" source="C3N5uGgPw5BcAoMVFrJw-31">
          <mxGeometry relative="1" as="geometry">
            <mxPoint x="650" y="330" as="sourcePoint" />
            <mxPoint x="659.6446609406726" y="164.14213562373106" as="targetPoint" />
          </mxGeometry>
        </mxCell>
        <mxCell id="C3N5uGgPw5BcAoMVFrJw-36" value="&lt;font style=&quot;font-size: 14px&quot;&gt;BE_ASSIGNED_TO&lt;/font&gt;" style="shape=rhombus;perimeter=rhombusPerimeter;whiteSpace=wrap;html=1;align=center;" vertex="1" parent="1">
          <mxGeometry x="437.5" y="500" width="195" height="60" as="geometry" />
        </mxCell>
        <mxCell id="C3N5uGgPw5BcAoMVFrJw-37" value="&lt;font style=&quot;font-size: 14px&quot;&gt;isDefective&lt;/font&gt;" style="ellipse;whiteSpace=wrap;html=1;align=center;" vertex="1" parent="1">
          <mxGeometry x="650" y="470" width="80" height="40" as="geometry" />
        </mxCell>
        <mxCell id="C3N5uGgPw5BcAoMVFrJw-38" value="" style="endArrow=none;html=1;rounded=0;exitX=1;exitY=0.5;exitDx=0;exitDy=0;entryX=0;entryY=0.5;entryDx=0;entryDy=0;" edge="1" parent="1" source="C3N5uGgPw5BcAoMVFrJw-5" target="C3N5uGgPw5BcAoMVFrJw-37">
          <mxGeometry relative="1" as="geometry">
            <mxPoint x="600" y="450" as="sourcePoint" />
            <mxPoint x="650" y="450" as="targetPoint" />
          </mxGeometry>
        </mxCell>
        <mxCell id="C3N5uGgPw5BcAoMVFrJw-39" value="&lt;font style=&quot;font-size: 14px&quot;&gt;REPAIR_ORDER&lt;/font&gt;" style="whiteSpace=wrap;html=1;align=center;" vertex="1" parent="1">
          <mxGeometry x="475" y="610" width="120" height="40" as="geometry" />
        </mxCell>
        <mxCell id="C3N5uGgPw5BcAoMVFrJw-40" value="&lt;span style=&quot;font-size: 14px&quot;&gt;Ser-#&lt;/span&gt;" style="ellipse;whiteSpace=wrap;html=1;align=center;fontStyle=4;" vertex="1" parent="1">
          <mxGeometry x="640" y="610" width="90" height="40" as="geometry" />
        </mxCell>
        <mxCell id="C3N5uGgPw5BcAoMVFrJw-41" value="" style="endArrow=none;html=1;rounded=0;exitX=1;exitY=0.5;exitDx=0;exitDy=0;entryX=0;entryY=0.5;entryDx=0;entryDy=0;" edge="1" parent="1" source="C3N5uGgPw5BcAoMVFrJw-39" target="C3N5uGgPw5BcAoMVFrJw-40">
          <mxGeometry relative="1" as="geometry">
            <mxPoint x="600" y="450" as="sourcePoint" />
            <mxPoint x="650" y="450" as="targetPoint" />
          </mxGeometry>
        </mxCell>
        <mxCell id="C3N5uGgPw5BcAoMVFrJw-42" value="&lt;font style=&quot;font-size: 14px&quot;&gt;REPAIR_WORK_CENTER&lt;/font&gt;" style="whiteSpace=wrap;html=1;align=center;" vertex="1" parent="1">
          <mxGeometry x="443.08000000000004" y="760" width="183.84" height="40" as="geometry" />
        </mxCell>
        <mxCell id="C3N5uGgPw5BcAoMVFrJw-43" value="" style="endArrow=none;html=1;rounded=0;exitX=0.5;exitY=1;exitDx=0;exitDy=0;entryX=0.5;entryY=0;entryDx=0;entryDy=0;" edge="1" parent="1" source="C3N5uGgPw5BcAoMVFrJw-5" target="C3N5uGgPw5BcAoMVFrJw-36">
          <mxGeometry relative="1" as="geometry">
            <mxPoint x="560" y="550" as="sourcePoint" />
            <mxPoint x="720" y="550" as="targetPoint" />
          </mxGeometry>
        </mxCell>
        <mxCell id="C3N5uGgPw5BcAoMVFrJw-44" value="1" style="resizable=0;html=1;align=right;verticalAlign=bottom;" connectable="0" vertex="1" parent="C3N5uGgPw5BcAoMVFrJw-43">
          <mxGeometry x="1" relative="1" as="geometry" />
        </mxCell>
        <mxCell id="C3N5uGgPw5BcAoMVFrJw-45" value="" style="endArrow=none;html=1;rounded=0;entryX=0.5;entryY=1;entryDx=0;entryDy=0;exitX=0.5;exitY=0;exitDx=0;exitDy=0;" edge="1" parent="1" source="C3N5uGgPw5BcAoMVFrJw-39" target="C3N5uGgPw5BcAoMVFrJw-36">
          <mxGeometry relative="1" as="geometry">
            <mxPoint x="520" y="550" as="sourcePoint" />
            <mxPoint x="680" y="550" as="targetPoint" />
          </mxGeometry>
        </mxCell>
        <mxCell id="C3N5uGgPw5BcAoMVFrJw-46" value="N" style="resizable=0;html=1;align=right;verticalAlign=bottom;" connectable="0" vertex="1" parent="C3N5uGgPw5BcAoMVFrJw-45">
          <mxGeometry x="1" relative="1" as="geometry">
            <mxPoint y="20" as="offset" />
          </mxGeometry>
        </mxCell>
        <mxCell id="C3N5uGgPw5BcAoMVFrJw-47" value="&lt;font style=&quot;font-size: 14px&quot;&gt;USE&lt;/font&gt;" style="shape=rhombus;perimeter=rhombusPerimeter;whiteSpace=wrap;html=1;align=center;" vertex="1" parent="1">
          <mxGeometry x="493.75" y="680" width="82.5" height="40" as="geometry" />
        </mxCell>
        <mxCell id="C3N5uGgPw5BcAoMVFrJw-48" value="&lt;span style=&quot;font-size: 14px&quot;&gt;RWrk-#&lt;/span&gt;" style="ellipse;whiteSpace=wrap;html=1;align=center;fontStyle=4;" vertex="1" parent="1">
          <mxGeometry x="645" y="760" width="90" height="40" as="geometry" />
        </mxCell>
        <mxCell id="C3N5uGgPw5BcAoMVFrJw-49" value="" style="endArrow=none;html=1;rounded=0;exitX=1;exitY=0.5;exitDx=0;exitDy=0;entryX=0;entryY=0.5;entryDx=0;entryDy=0;" edge="1" parent="1" target="C3N5uGgPw5BcAoMVFrJw-48" source="C3N5uGgPw5BcAoMVFrJw-42">
          <mxGeometry relative="1" as="geometry">
            <mxPoint x="632.5" y="770" as="sourcePoint" />
            <mxPoint x="687.5" y="590" as="targetPoint" />
          </mxGeometry>
        </mxCell>
        <mxCell id="C3N5uGgPw5BcAoMVFrJw-50" value="" style="endArrow=none;html=1;rounded=0;entryX=0.5;entryY=1;entryDx=0;entryDy=0;exitX=0.5;exitY=0;exitDx=0;exitDy=0;" edge="1" parent="1" source="C3N5uGgPw5BcAoMVFrJw-47" target="C3N5uGgPw5BcAoMVFrJw-39">
          <mxGeometry relative="1" as="geometry">
            <mxPoint x="545" y="310" as="sourcePoint" />
            <mxPoint x="545" y="280" as="targetPoint" />
          </mxGeometry>
        </mxCell>
        <mxCell id="C3N5uGgPw5BcAoMVFrJw-51" value="M" style="resizable=0;html=1;align=left;verticalAlign=bottom;" connectable="0" vertex="1" parent="C3N5uGgPw5BcAoMVFrJw-50">
          <mxGeometry x="-1" relative="1" as="geometry" />
        </mxCell>
        <mxCell id="C3N5uGgPw5BcAoMVFrJw-52" value="" style="endArrow=none;html=1;rounded=0;entryX=0.5;entryY=1;entryDx=0;entryDy=0;exitX=0.5;exitY=0;exitDx=0;exitDy=0;" edge="1" parent="1" source="C3N5uGgPw5BcAoMVFrJw-42" target="C3N5uGgPw5BcAoMVFrJw-47">
          <mxGeometry relative="1" as="geometry">
            <mxPoint x="545" y="430" as="sourcePoint" />
            <mxPoint x="545" y="370" as="targetPoint" />
          </mxGeometry>
        </mxCell>
        <mxCell id="C3N5uGgPw5BcAoMVFrJw-53" value="N" style="resizable=0;html=1;align=right;verticalAlign=bottom;" connectable="0" vertex="1" parent="C3N5uGgPw5BcAoMVFrJw-52">
          <mxGeometry x="1" relative="1" as="geometry">
            <mxPoint x="15" y="20" as="offset" />
          </mxGeometry>
        </mxCell>
      </root>
    </mxGraphModel>
  </diagram>
</mxfile>
